<svg width="30" height="30" viewBox="0 0 30 30" fill="none" xmlns="http://www.w3.org/2000/svg">
<g clip-path="url(#clip0_844_36753)">
<path d="M20.9661 0.0150131C20.9024 -0.0562368 18.6055 0.0431382 16.6067 2.21251C14.608 4.38001 14.9155 6.86626 14.9605 6.93001C15.0055 6.99376 17.8105 7.09314 19.6011 4.57126C21.3917 2.04939 21.0299 0.0881381 20.9661 0.0150131ZM27.1799 22.0144C27.0899 21.8344 22.8205 19.7006 23.218 15.5981C23.6155 11.4938 26.3586 10.3688 26.4017 10.2469C26.4449 10.125 25.2824 8.76564 24.0505 8.07751C23.146 7.59236 22.145 7.3144 21.1199 7.26376C20.9174 7.25814 20.2142 7.08564 18.7686 7.48126C17.8161 7.74189 15.6692 8.58564 15.0786 8.61939C14.4861 8.65314 12.7236 7.64064 10.828 7.37251C9.61486 7.13814 8.32861 7.61814 7.40799 7.98751C6.48924 8.35501 4.74174 9.40126 3.51924 12.1819C2.29674 14.9606 2.93611 19.3631 3.39361 20.7319C3.85111 22.0988 4.56549 24.3394 5.78049 25.9744C6.86049 27.8194 8.29299 29.1 8.89111 29.535C9.48924 29.97 11.1767 30.2588 12.3467 29.6606C13.288 29.0831 14.9867 28.7513 15.658 28.7756C16.3274 28.8 17.6474 29.0644 18.9992 29.7863C20.0699 30.1556 21.0824 30.0019 22.0967 29.5894C23.1111 29.175 24.5792 27.6038 26.293 24.4181C26.9436 22.9369 27.2399 22.1363 27.1799 22.0144Z" fill="black"/>
<path d="M20.9661 0.0150131C20.9024 -0.0562368 18.6055 0.0431382 16.6067 2.21251C14.608 4.38001 14.9155 6.86626 14.9605 6.93001C15.0055 6.99376 17.8105 7.09314 19.6011 4.57126C21.3917 2.04939 21.0299 0.0881381 20.9661 0.0150131ZM27.1799 22.0144C27.0899 21.8344 22.8205 19.7006 23.218 15.5981C23.6155 11.4938 26.3586 10.3688 26.4017 10.2469C26.4449 10.125 25.2824 8.76564 24.0505 8.07751C23.146 7.59236 22.145 7.3144 21.1199 7.26376C20.9174 7.25814 20.2142 7.08564 18.7686 7.48126C17.8161 7.74189 15.6692 8.58564 15.0786 8.61939C14.4861 8.65314 12.7236 7.64064 10.828 7.37251C9.61486 7.13814 8.32861 7.61814 7.40799 7.98751C6.48924 8.35501 4.74174 9.40126 3.51924 12.1819C2.29674 14.9606 2.93611 19.3631 3.39361 20.7319C3.85111 22.0988 4.56549 24.3394 5.78049 25.9744C6.86049 27.8194 8.29299 29.1 8.89111 29.535C9.48924 29.97 11.1767 30.2588 12.3467 29.6606C13.288 29.0831 14.9867 28.7513 15.658 28.7756C16.3274 28.8 17.6474 29.0644 18.9992 29.7863C20.0699 30.1556 21.0824 30.0019 22.0967 29.5894C23.1111 29.175 24.5792 27.6038 26.293 24.4181C26.9436 22.9369 27.2399 22.1363 27.1799 22.0144Z" fill="black"/>
</g>
<defs>
<clipPath id="clip0_844_36753">
<rect width="30" height="30" fill="white"/>
</clipPath>
</defs>
</svg>
