<svg width="19" height="27" viewBox="0 0 19 27" fill="none" xmlns="http://www.w3.org/2000/svg">
<path fill-rule="evenodd" clip-rule="evenodd" d="M10.0494 22.221C10.0494 19.8439 11.953 17.9474 13.9502 16.6583C16.4464 15.0473 18.0989 12.2413 18.0989 9.04946C18.0989 4.05158 14.0473 0 9.04946 0C4.05158 0 0 4.05158 0 9.04946C0 12.2413 1.65251 15.0472 4.14866 16.6583C6.14588 17.9474 8.04943 19.8439 8.04943 22.221V25.882C8.04943 26.4343 8.49715 26.882 9.04943 26.882C9.60172 26.882 10.0494 26.4343 10.0494 25.882V22.221ZM11.3084 9.03599C11.3084 10.2836 10.297 11.295 9.04938 11.295C7.80176 11.295 6.79037 10.2836 6.79037 9.03599C6.79037 7.78837 7.80176 6.77698 9.04938 6.77698C10.297 6.77698 11.3084 7.78837 11.3084 9.03599Z" fill="url(#paint0_linear_844_36770)"/>
<defs>
<linearGradient id="paint0_linear_844_36770" x1="9.04946" y1="0" x2="9.04946" y2="26.8822" gradientUnits="userSpaceOnUse">
<stop stop-color="#FF3232"/>
<stop offset="1" stop-color="#FF6B6B"/>
</linearGradient>
</defs>
</svg>
