<svg width="30" height="21" viewBox="0 0 30 21" fill="none" xmlns="http://www.w3.org/2000/svg">
<path fill-rule="evenodd" clip-rule="evenodd" d="M15.4069 4.83063C17.1469 2.4775 19.0706 0.625 21.5306 0.625C26.175 0.625 30 6.53687 30.0019 13.5756C30.0019 17.8694 28.1531 20.56 24.8325 20.56C21.9394 20.56 20.3419 18.9363 17.475 14.14L16.2244 12.0344L16.0031 11.665C15.677 11.1138 15.3457 10.5656 15.0094 10.0206L12.8006 13.9206C9.66375 19.405 7.8975 20.56 5.445 20.56C2.03625 20.56 0 17.9069 0 13.6994C0 6.9775 3.74063 0.625 8.62125 0.625C9.21937 0.625 9.79313 0.698125 10.3537 0.85375C10.935 1.015 11.4994 1.26625 12.0656 1.61688C13.1475 2.29 14.2294 3.3325 15.4069 4.83063ZM18.2494 9.00062C17.7769 8.23187 17.3231 7.525 16.8862 6.87625L16.875 6.86125C18.4594 4.41438 19.7681 3.1975 21.3225 3.1975C24.5531 3.1975 27.1388 7.95437 27.1388 13.7969C27.1388 16.0244 26.4075 17.3162 24.8981 17.3162C23.4488 17.3162 22.7569 16.36 20.0044 11.935L18.2475 9.00062H18.2494ZM9.08625 3.9175C10.4456 4.105 11.6831 5.10625 13.4738 7.66937C12.4406 9.25145 11.4187 10.8409 10.4081 12.4375C7.86375 16.4237 6.98438 17.3181 5.56875 17.3181C4.11188 17.3181 3.24375 16.0394 3.24375 13.7556C3.24375 8.87688 5.6775 3.88562 8.58 3.88562C8.75063 3.88562 8.91938 3.89687 9.08625 3.91937V3.9175Z" fill="#0063E0"/>
</svg>
