<svg width="27" height="28" viewBox="0 0 27 28" fill="none" xmlns="http://www.w3.org/2000/svg">
<path d="M27 14.3087C27 13.4041 26.9207 12.5452 26.7847 11.7092H13.9766V16.8739H21.3101C20.9814 18.5687 20.0179 20.0002 18.5898 20.9736V24.4091H22.9649C25.5265 22.0157 27 18.4886 27 14.3087Z" fill="#4285F4"/>
<path d="M13.9773 27.7417C17.6497 27.7417 20.7214 26.505 22.9656 24.4093L18.5904 20.9738C17.3663 21.7984 15.8135 22.3022 13.9773 22.3022C10.4295 22.3022 7.42586 19.8859 6.34907 16.6222H1.83789V20.1608C4.07081 24.6498 8.66133 27.7417 13.9773 27.7417Z" fill="#34A853"/>
<path d="M6.34834 16.6223C6.06498 15.7978 5.91762 14.916 5.91762 13.9999C5.91762 13.0838 6.07631 12.202 6.34834 11.3775V7.83893H1.83716C0.907727 9.69409 0.375 11.7783 0.375 13.9999C0.375 16.2215 0.907727 18.3057 1.83716 20.1609L6.34834 16.6223Z" fill="#FBBC05"/>
<path d="M13.9773 5.69757C15.9835 5.69757 17.7744 6.39612 19.1912 7.75886L23.0676 3.84241C20.7213 1.6208 17.6497 0.258057 13.9773 0.258057C8.66133 0.258057 4.07081 3.34999 1.83789 7.83902L6.34907 11.3776C7.42585 8.11386 10.4295 5.69757 13.9773 5.69757Z" fill="#EA4335"/>
</svg>
